# Blender v2.91.0 OBJ File: 'untitled.blend'
# www.blender.org
mtllib drum.mtl
o ground.004_ground
v 8.727167 -5.512093 21.489033
v 8.727167 -5.512092 24.751194
v 5.468486 -5.361467 21.489033
v 5.468486 -5.361466 24.751194
vt 0.370392 0.355458
vt 0.146638 0.355458
vt 0.370392 0.579213
vt 0.146638 0.579213
vn 0.0462 0.9989 -0.0000
usemtl Material.038
s 1
f 1/1/1 3/2/1 2/3/1
f 4/4/1 2/3/1 3/2/1
o ground.005_ground.002
v 5.545090 -5.484451 26.542500
v 5.545090 -5.484450 29.804661
v 2.286410 -5.333825 26.542500
v 2.286410 -5.333824 29.804661
vt 0.370392 0.355458
vt 0.146638 0.355458
vt 0.370392 0.579213
vt 0.146638 0.579213
vn 0.0462 0.9989 0.0000
usemtl Material.038
s 1
f 5/5/2 7/6/2 6/7/2
f 8/8/2 6/7/2 7/6/2
o ground.006_ground.003
v 7.195437 -5.471896 23.997578
v 7.195437 -5.471895 27.259739
v 3.936757 -5.321270 23.997578
v 3.936757 -5.321269 27.259739
vt 0.370392 0.355458
vt 0.146638 0.355458
vt 0.370392 0.579213
vt 0.146638 0.579213
vn 0.0462 0.9989 -0.0000
usemtl Material.038
s 1
f 9/9/3 11/10/3 10/11/3
f 12/12/3 10/11/3 11/10/3
o ground.008_ground
v 4.257349 -5.324480 29.124271
v 4.257349 -5.324479 32.386433
v 0.998845 -5.478883 29.124271
v 0.998845 -5.478882 32.386433
vt 0.370392 0.355458
vt 0.146638 0.355458
vt 0.370392 0.579213
vt 0.146638 0.579213
vn -0.0473 0.9989 0.0000
usemtl Material.038
s 1
f 13/13/4 15/14/4 14/15/4
f 16/16/4 14/15/4 15/14/4
o ground.009_ground.002
v 0.783473 -5.450989 34.149410
v 0.783473 -5.450988 37.411572
v -2.475031 -5.605392 34.149410
v -2.475031 -5.605392 37.411572
vt 0.370392 0.355458
vt 0.146638 0.355458
vt 0.370392 0.579213
vt 0.146638 0.579213
vn -0.0473 0.9989 0.0000
usemtl Material.038
s 1
f 17/17/5 19/18/5 18/19/5
f 20/20/5 18/19/5 19/18/5
o ground.010_ground.003
v 2.804111 -5.482092 31.384312
v 2.804111 -5.482092 34.646473
v -0.454393 -5.636496 31.384312
v -0.454393 -5.636495 34.646473
vt 0.370392 0.355458
vt 0.146638 0.355458
vt 0.370392 0.579213
vt 0.146638 0.579213
vn -0.0473 0.9989 0.0000
usemtl Material.038
s 1
f 21/21/6 23/22/6 22/23/6
f 24/24/6 22/23/6 23/22/6
